<svg width="239" height="37" viewBox="0 0 239 37" fill="none" xmlns="http://www.w3.org/2000/svg">
<path d="M9.975 18.556C12.201 18.556 13.251 17.422 13.545 15.784H19.446C18.795 20.635 14.616 22.315 9.975 22.315C5.103 22.315 0.42 20.425 0.42 14.65C0.42 8.896 5.103 7.006 9.975 7.006C14.616 7.006 18.795 8.686 19.446 13.537H13.545C13.251 11.878 12.201 10.765 9.975 10.765C7.455 10.765 6.258 12.214 6.258 14.65C6.258 17.107 7.455 18.556 9.975 18.556ZM36.2101 7.3H41.9851V22H36.2101V16.729H29.6371V22H23.8621V7.3H29.6371V12.55H36.2101V7.3ZM60.1576 22L59.3386 19.921H52.7866L51.9676 22H45.9826L52.7866 7.3H59.3386L66.1426 22H60.1576ZM54.2986 16.141H57.8266L56.0626 11.647L54.2986 16.141ZM70.1318 7.3H75.9068V22H70.1318V7.3ZM92.6956 7.3H98.4706V22H92.3806L86.5216 14.02V22H80.7466V7.3H86.8156L92.6956 15.301V7.3ZM119.782 7.3V11.101H114.217V22H108.442V11.101H102.877V7.3H119.782ZM124.186 7.3H129.961V22H124.186V7.3ZM143.936 18.556C146.162 18.556 147.212 17.422 147.506 15.784H153.407C152.756 20.635 148.577 22.315 143.936 22.315C139.064 22.315 134.381 20.425 134.381 14.65C134.381 8.896 139.064 7.006 143.936 7.006C148.577 7.006 152.756 8.686 153.407 13.537H147.506C147.212 11.878 146.162 10.765 143.936 10.765C141.416 10.765 140.219 12.214 140.219 14.65C140.219 17.107 141.416 18.556 143.936 18.556ZM169.142 22L165.341 16.687L163.598 18.262V22H157.823V7.3H163.598V11.962L168.491 7.3H175.652L169.226 13.159L175.946 22H169.142ZM195.441 18.22V22H179.943V7.3H195.252V11.101H185.718V12.76H194.664V16.351H185.718V18.22H195.441ZM216.538 7.3V11.101H210.973V22H205.198V11.101H199.633V7.3H216.538ZM230.161 12.676C235.159 13.18 238.561 13.432 238.561 17.338C238.561 21.223 235.117 22.315 229.342 22.315C222.706 22.315 220.312 20.425 220.312 17.233H226.339C226.339 18.367 227.305 18.766 229.678 18.766C231.589 18.766 232.408 18.493 232.408 17.779C232.408 17.002 231.799 17.002 227.158 16.414C222.58 15.826 220.711 14.839 220.711 11.794C220.711 8.56 223.441 7.006 229.132 7.006C235.39 7.006 237.595 9.022 237.595 11.794H231.757C231.757 10.954 231.022 10.534 229.09 10.534C227.074 10.534 226.423 10.933 226.423 11.542C226.423 12.34 227.494 12.403 230.161 12.676Z" fill="white"/>
<line x1="0.0038452" y1="33.9873" x2="200.004" y2="34.5" stroke="#FFB727" stroke-width="3"/>
<path d="M210.246 34.884V36H204.63V29.7H210.156V30.816H206.079V32.211H209.904V33.318H206.079V34.884H210.246ZM214.992 31.203H216.414L214.227 36H212.886L210.699 31.203H212.121L213.561 34.614L214.992 31.203ZM221.994 33.957H217.737C217.845 34.614 218.304 35.19 219.303 35.19C220.032 35.19 220.5 34.866 220.689 34.461H221.895C221.58 35.658 220.491 36.135 219.303 36.135C217.935 36.135 216.504 35.379 216.504 33.606C216.504 31.833 217.917 31.077 219.294 31.077C220.689 31.077 222.138 31.932 221.994 33.957ZM219.294 32.013C218.439 32.013 217.962 32.481 217.782 33.057H220.743C220.599 32.481 220.194 32.013 219.294 32.013ZM226.007 31.077C227.24 31.077 227.96 31.743 227.96 32.823V36H226.592V33.165C226.592 32.589 226.259 32.094 225.413 32.094C224.567 32.094 224.189 32.607 224.189 33.165V36H222.821V31.203H224.189V31.878C224.396 31.59 224.981 31.077 226.007 31.077ZM232.171 32.139H230.767V34.155C230.767 34.938 231.055 35.091 232.171 34.974V36C231.991 36.027 231.775 36.072 231.46 36.072C229.732 36.072 229.399 35.325 229.399 34.128V32.139H228.508V31.203H229.399V29.961H230.767V31.203H232.171V32.139ZM235.769 33.111C237.119 33.345 238.037 33.444 238.037 34.551C238.037 35.649 237.101 36.135 235.364 36.135C233.672 36.135 232.619 35.604 232.619 34.524H234.104C234.104 35.001 234.671 35.208 235.454 35.208C236.228 35.208 236.633 35.064 236.633 34.695C236.633 34.263 236.039 34.209 234.761 33.993C233.492 33.786 232.808 33.516 232.808 32.562C232.808 31.599 233.663 31.077 235.283 31.077C236.975 31.077 237.821 31.707 237.821 32.589H236.444C236.444 32.283 236.093 31.977 235.265 31.977C234.518 31.977 234.113 32.13 234.113 32.499C234.113 32.913 234.914 32.958 235.769 33.111Z" fill="white"/>
</svg>
